<svg width="171" height="32" viewBox="0 0 171 32" fill="none" xmlns="http://www.w3.org/2000/svg">
<path d="M50.4205 24H45.2642V9.45455H50.4631C51.9261 9.45455 53.1856 9.74574 54.2415 10.3281C55.2973 10.9058 56.1094 11.7367 56.6776 12.821C57.2505 13.9053 57.5369 15.2027 57.5369 16.7131C57.5369 18.2282 57.2505 19.5303 56.6776 20.6193C56.1094 21.7083 55.2926 22.544 54.2273 23.1264C53.1667 23.7088 51.8977 24 50.4205 24ZM48.3395 21.3651H50.2926C51.2017 21.3651 51.9664 21.2041 52.5866 20.8821C53.2116 20.5554 53.6804 20.0511 53.9929 19.3693C54.3101 18.6828 54.4688 17.7973 54.4688 16.7131C54.4688 15.6383 54.3101 14.7599 53.9929 14.0781C53.6804 13.3963 53.214 12.8944 52.5938 12.5724C51.9735 12.2505 51.2088 12.0895 50.2997 12.0895H48.3395V21.3651ZM64.7298 24.2131C63.6076 24.2131 62.6417 23.9858 61.832 23.5312C61.0271 23.072 60.4068 22.4233 59.9712 21.5852C59.5356 20.7424 59.3178 19.7457 59.3178 18.5952C59.3178 17.473 59.5356 16.4882 59.9712 15.6406C60.4068 14.7931 61.02 14.1326 61.8107 13.6591C62.6062 13.1856 63.5389 12.9489 64.609 12.9489C65.3287 12.9489 65.9987 13.0649 66.619 13.2969C67.244 13.5241 67.7885 13.8674 68.2525 14.3267C68.7212 14.786 69.0858 15.3636 69.3462 16.0597C69.6067 16.7509 69.7369 17.5606 69.7369 18.4886V19.3196H60.5252V17.4446H66.8888C66.8888 17.009 66.7942 16.6231 66.6048 16.2869C66.4154 15.9508 66.1526 15.688 65.8164 15.4986C65.485 15.3045 65.0991 15.2074 64.6587 15.2074C64.1995 15.2074 63.7923 15.3139 63.4371 15.527C63.0868 15.7353 62.8121 16.017 62.6133 16.3722C62.4144 16.7225 62.3126 17.1132 62.3079 17.544V19.3267C62.3079 19.8665 62.4073 20.3329 62.6062 20.7259C62.8098 21.1188 63.0962 21.4219 63.4656 21.6349C63.8349 21.848 64.2728 21.9545 64.7795 21.9545C65.1156 21.9545 65.4234 21.9072 65.7028 21.8125C65.9821 21.7178 66.2212 21.5758 66.4201 21.3864C66.619 21.197 66.7705 20.965 66.8746 20.6903L69.6729 20.875C69.5309 21.5473 69.2397 22.1345 68.7994 22.6364C68.3638 23.1335 67.8003 23.5218 67.109 23.8011C66.4225 24.0758 65.6294 24.2131 64.7298 24.2131ZM81.5888 13.0909L77.7749 24H74.3658L70.5518 13.0909H73.7479L76.0135 20.8963H76.1271L78.3857 13.0909H81.5888ZM100.657 14.5469H97.5458C97.489 14.1444 97.373 13.7869 97.1978 13.4744C97.0226 13.1572 96.7977 12.8873 96.5231 12.6648C96.2485 12.4422 95.9312 12.2718 95.5714 12.1534C95.2163 12.035 94.8304 11.9759 94.4137 11.9759C93.6609 11.9759 93.0051 12.1629 92.4464 12.5369C91.8877 12.9062 91.4544 13.446 91.1467 14.1562C90.8389 14.8617 90.685 15.7187 90.685 16.7273C90.685 17.7642 90.8389 18.6354 91.1467 19.3409C91.4592 20.0464 91.8948 20.5791 92.4535 20.9389C93.0122 21.2988 93.6585 21.4787 94.3924 21.4787C94.8043 21.4787 95.1855 21.4242 95.5359 21.3153C95.891 21.2064 96.2058 21.0478 96.4805 20.8395C96.7551 20.6264 96.9824 20.3684 97.1623 20.0653C97.3469 19.7623 97.4748 19.4167 97.5458 19.0284L100.657 19.0426C100.576 19.7102 100.375 20.3542 100.053 20.9744C99.7357 21.59 99.3072 22.1416 98.7674 22.6293C98.2324 23.1122 97.5932 23.4957 96.8498 23.7798C96.1112 24.0592 95.2754 24.1989 94.3427 24.1989C93.0453 24.1989 91.8853 23.9053 90.8626 23.3182C89.8446 22.7311 89.0397 21.8812 88.4478 20.7685C87.8607 19.6558 87.5671 18.3087 87.5671 16.7273C87.5671 15.1411 87.8654 13.7917 88.462 12.679C89.0586 11.5663 89.8683 10.7187 90.891 10.1364C91.9137 9.54924 93.0643 9.25568 94.3427 9.25568C95.1855 9.25568 95.9667 9.37405 96.6864 9.6108C97.4109 9.84754 98.0524 10.1932 98.6112 10.6477C99.1699 11.0975 99.6244 11.6491 99.9748 12.3026C100.33 12.956 100.557 13.7041 100.657 14.5469ZM107.734 24.2131C106.631 24.2131 105.677 23.9787 104.872 23.5099C104.072 23.0365 103.454 22.3783 103.018 21.5355C102.583 20.688 102.365 19.7055 102.365 18.5881C102.365 17.4612 102.583 16.4763 103.018 15.6335C103.454 14.786 104.072 14.1278 104.872 13.6591C105.677 13.1856 106.631 12.9489 107.734 12.9489C108.837 12.9489 109.789 13.1856 110.589 13.6591C111.394 14.1278 112.014 14.786 112.45 15.6335C112.886 16.4763 113.103 17.4612 113.103 18.5881C113.103 19.7055 112.886 20.688 112.45 21.5355C112.014 22.3783 111.394 23.0365 110.589 23.5099C109.789 23.9787 108.837 24.2131 107.734 24.2131ZM107.748 21.8693C108.25 21.8693 108.669 21.7273 109.005 21.4432C109.342 21.1544 109.595 20.7614 109.765 20.2642C109.94 19.767 110.028 19.2012 110.028 18.5668C110.028 17.9323 109.94 17.3665 109.765 16.8693C109.595 16.3722 109.342 15.9792 109.005 15.6903C108.669 15.4015 108.25 15.2571 107.748 15.2571C107.242 15.2571 106.815 15.4015 106.47 15.6903C106.129 15.9792 105.871 16.3722 105.696 16.8693C105.525 17.3665 105.44 17.9323 105.44 18.5668C105.44 19.2012 105.525 19.767 105.696 20.2642C105.871 20.7614 106.129 21.1544 106.47 21.4432C106.815 21.7273 107.242 21.8693 107.748 21.8693ZM118.096 17.6932V24H115.071V13.0909H117.954V15.0156H118.082C118.324 14.3812 118.728 13.8793 119.297 13.5099C119.865 13.1359 120.554 12.9489 121.363 12.9489C122.121 12.9489 122.781 13.1146 123.345 13.446C123.908 13.7775 124.346 14.2509 124.659 14.8665C124.971 15.4773 125.127 16.2064 125.127 17.054V24H122.102V17.5938C122.107 16.9261 121.936 16.4053 121.591 16.0312C121.245 15.6525 120.769 15.4631 120.163 15.4631C119.756 15.4631 119.396 15.5507 119.083 15.7259C118.776 15.901 118.534 16.1567 118.359 16.4929C118.189 16.8243 118.101 17.2244 118.096 17.6932ZM130.538 17.6932V24H127.512V13.0909H130.396V15.0156H130.523C130.765 14.3812 131.17 13.8793 131.738 13.5099C132.306 13.1359 132.995 12.9489 133.805 12.9489C134.562 12.9489 135.223 13.1146 135.786 13.446C136.35 13.7775 136.788 14.2509 137.1 14.8665C137.413 15.4773 137.569 16.2064 137.569 17.054V24H134.543V17.5938C134.548 16.9261 134.378 16.4053 134.032 16.0312C133.686 15.6525 133.21 15.4631 132.604 15.4631C132.197 15.4631 131.837 15.5507 131.525 15.7259C131.217 15.901 130.976 16.1567 130.8 16.4929C130.63 16.8243 130.542 17.2244 130.538 17.6932ZM144.925 24.2131C143.803 24.2131 142.837 23.9858 142.027 23.5312C141.222 23.072 140.602 22.4233 140.167 21.5852C139.731 20.7424 139.513 19.7457 139.513 18.5952C139.513 17.473 139.731 16.4882 140.167 15.6406C140.602 14.7931 141.215 14.1326 142.006 13.6591C142.801 13.1856 143.734 12.9489 144.804 12.9489C145.524 12.9489 146.194 13.0649 146.814 13.2969C147.439 13.5241 147.984 13.8674 148.448 14.3267C148.917 14.786 149.281 15.3636 149.542 16.0597C149.802 16.7509 149.932 17.5606 149.932 18.4886V19.3196H140.721V17.4446H147.084C147.084 17.009 146.989 16.6231 146.8 16.2869C146.611 15.9508 146.348 15.688 146.012 15.4986C145.68 15.3045 145.294 15.2074 144.854 15.2074C144.395 15.2074 143.988 15.3139 143.632 15.527C143.282 15.7353 143.007 16.017 142.809 16.3722C142.61 16.7225 142.508 17.1132 142.503 17.544V19.3267C142.503 19.8665 142.603 20.3329 142.801 20.7259C143.005 21.1188 143.292 21.4219 143.661 21.6349C144.03 21.848 144.468 21.9545 144.975 21.9545C145.311 21.9545 145.619 21.9072 145.898 21.8125C146.177 21.7178 146.417 21.5758 146.615 21.3864C146.814 21.197 146.966 20.965 147.07 20.6903L149.868 20.875C149.726 21.5473 149.435 22.1345 148.995 22.6364C148.559 23.1335 147.996 23.5218 147.304 23.8011C146.618 24.0758 145.825 24.2131 144.925 24.2131ZM156.836 24.2131C155.718 24.2131 154.757 23.9763 153.952 23.5028C153.152 23.0246 152.536 22.3617 152.105 21.5142C151.679 20.6667 151.466 19.6913 151.466 18.5881C151.466 17.4706 151.682 16.4905 152.113 15.6477C152.548 14.8002 153.166 14.1397 153.966 13.6662C154.766 13.188 155.718 12.9489 156.821 12.9489C157.773 12.9489 158.606 13.1217 159.321 13.4673C160.036 13.813 160.602 14.2983 161.019 14.9233C161.435 15.5483 161.665 16.2822 161.708 17.125H158.853C158.772 16.5805 158.559 16.1425 158.213 15.8111C157.873 15.4749 157.425 15.3068 156.871 15.3068C156.402 15.3068 155.993 15.4347 155.642 15.6903C155.297 15.9413 155.027 16.3082 154.833 16.7912C154.639 17.2741 154.542 17.8589 154.542 18.5455C154.542 19.2415 154.636 19.8333 154.826 20.321C155.02 20.8087 155.292 21.1804 155.642 21.4361C155.993 21.6918 156.402 21.8196 156.871 21.8196C157.217 21.8196 157.527 21.7486 157.801 21.6065C158.081 21.4645 158.31 21.2585 158.49 20.9886C158.675 20.714 158.796 20.3849 158.853 20.0014H161.708C161.66 20.8348 161.433 21.5687 161.026 22.2031C160.623 22.8329 160.067 23.3253 159.357 23.6804C158.647 24.0355 157.806 24.2131 156.836 24.2131ZM169.447 13.0909V15.3636H162.878V13.0909H169.447ZM164.369 10.4773H167.395V20.6477C167.395 20.9271 167.438 21.1449 167.523 21.3011C167.608 21.4527 167.726 21.5592 167.878 21.6207C168.034 21.6823 168.214 21.7131 168.418 21.7131C168.56 21.7131 168.702 21.7012 168.844 21.6776C168.986 21.6491 169.095 21.6278 169.17 21.6136L169.646 23.8651C169.495 23.9124 169.282 23.9669 169.007 24.0284C168.732 24.0947 168.399 24.1349 168.006 24.1491C167.277 24.1776 166.637 24.0805 166.088 23.858C165.544 23.6354 165.12 23.2898 164.817 22.821C164.514 22.3523 164.365 21.7604 164.369 21.0455V10.4773Z" fill="white"/>
<g clip-path="url(#clip0_1_7)">
<path d="M0 6C0 2.68629 2.68629 0 6 0H26C29.3137 0 32 2.68629 32 6V32H6C2.68629 32 0 29.3137 0 26V6Z" fill="white"/>
<path d="M20 23.2C19.0133 23.2 18.0933 23.02 17.24 22.66C16.4 22.3 15.6667 21.7933 15.04 21.14C14.4133 20.4867 13.9267 19.7333 13.58 18.88C13.2467 18.0133 13.08 17.0867 13.08 16.1C13.08 15.1133 13.2467 14.1933 13.58 13.34C13.9267 12.4733 14.4067 11.72 15.02 11.08C15.6467 10.44 16.38 9.93999 17.22 9.57999C18.06 9.21999 18.9667 9.03999 19.94 9.03999C20.9933 9.03999 21.9333 9.22666 22.76 9.59999C23.6 9.97332 24.3333 10.4867 24.96 11.14L23.96 12.14C23.48 11.6067 22.9 11.1933 22.22 10.9C21.54 10.5933 20.78 10.44 19.94 10.44C19.1667 10.44 18.4533 10.58 17.8 10.86C17.16 11.14 16.5933 11.54 16.1 12.06C15.62 12.5667 15.2467 13.1667 14.98 13.86C14.7267 14.54 14.6 15.2867 14.6 16.1C14.6 16.9133 14.7333 17.6667 15 18.36C15.2667 19.0533 15.64 19.66 16.12 20.18C16.6 20.6867 17.1667 21.08 17.82 21.36C18.4733 21.64 19.1867 21.78 19.96 21.78C20.84 21.78 21.62 21.6267 22.3 21.32C22.9933 21.0133 23.58 20.5933 24.06 20.06L25.06 21.08C24.4467 21.7333 23.7133 22.2533 22.86 22.64C22.0067 23.0133 21.0533 23.2 20 23.2Z" fill="black"/>
<path d="M9.3 23V20.58H12.88C13.7867 20.58 14.58 20.3933 15.26 20.02C15.94 19.6333 16.4667 19.0933 16.84 18.4C17.2267 17.7067 17.42 16.8867 17.42 15.94C17.42 15.02 17.2267 14.22 16.84 13.54C16.4533 12.8467 15.92 12.3133 15.24 11.94C14.56 11.5533 13.7733 11.36 12.88 11.36H9.24V8.94H12.92C13.96 8.94 14.92 9.11333 15.8 9.46C16.6933 9.80667 17.4667 10.3 18.12 10.94C18.7867 11.5667 19.3 12.3067 19.66 13.16C20.0333 14.0133 20.22 14.9467 20.22 15.96C20.22 16.9733 20.0333 17.9133 19.66 18.78C19.3 19.6333 18.7933 20.38 18.14 21.02C17.4867 21.6467 16.7133 22.1333 15.82 22.48C14.94 22.8267 13.9867 23 12.96 23H9.3ZM7.44 23V8.94H10.16V23H7.44Z" fill="black"/>
</g>
<defs>
<clipPath id="clip0_1_7">
<rect width="32" height="32" fill="white"/>
</clipPath>
</defs>
</svg>